<svg xmlns="http://www.w3.org/2000/svg" width="443.56" height="324.279" viewBox="0 0 443.56 324.279">
  <g id="Group_247" data-name="Group 247" transform="translate(-916.145 -832.067)">
    <g id="html-5_1_" data-name="html-5 (1)" transform="translate(916.145 832.363)">
      <path id="Path_384" data-name="Path 384" d="M32,0l7.612,85.969,34.179,9.552,34.167-9.546L115.581,0Z" transform="translate(-32)" fill="#fff"/>
      <path id="Path_385" data-name="Path 385" d="M166.96,104.745H126.9l.955,10.8H166l-2.872,32.382-21.456,5.988-.018.006-21.445-5.994-1.5-16.937h10.507l.782,8.788,11.66,3.17.012-.006h0l11.672-3.17,1.218-13.677h-36.28l-2.83-31.886h52.435Z" transform="translate(-99.886 -76.632)" fill="#1d207e"/>
    </g>
    <g id="css" transform="translate(1032.574 832.5)">
      <path id="Path_382" data-name="Path 382" d="M32,0l7.6,85.847,34.13,9.539,34.118-9.533L115.462,0Z" transform="translate(-32)" fill="#fff"/>
      <path id="Path_383" data-name="Path 383" d="M166.078,104.73l-.96,10.785-2.9,32.33L140.6,153.824l-.018.006-21.611-5.985-1.508-16.907h10.588l.787,8.77,11.75,3.172.006-.006L152.36,139.7l1.6-14.612-37.01.1L115.9,115.2l38.947-.459.787-10.7-40.777.113-.686-9.95h52.843Z" transform="translate(-98.867 -76.657)" fill="#1d207e"/>
    </g>
    <g id="XMLID_21_" transform="translate(1148.93 943.363)">
      <path id="XMLID_4_" d="M.005,45.567A45.571,45.571,0,0,0,25.688,86.576L3.951,27.023A45.4,45.4,0,0,0,.005,45.567Zm76.328-2.3A23.994,23.994,0,0,0,72.576,30.7C70.267,26.946,68.1,23.77,68.1,20.015a7.888,7.888,0,0,1,7.651-8.087c.2,0,.4.025.59.037A45.556,45.556,0,0,0,7.5,20.537c1.071.035,2.079.057,2.933.057,4.765,0,12.145-.579,12.145-.579a1.884,1.884,0,0,1,.29,3.755s-2.469.289-5.214.432L34.247,73.561l9.972-29.907L37.12,24.2c-2.456-.143-4.779-.432-4.779-.432-2.456-.146-2.168-3.9.289-3.755,0,0,7.524.579,12,.579,4.765,0,12.145-.579,12.145-.579a1.884,1.884,0,0,1,.29,3.755s-2.472.289-5.214.432L68.32,73.184,72.865,58Q76.331,49.117,76.333,43.268ZM46.373,49.553,32.7,89.281a45.591,45.591,0,0,0,28-.727,4.294,4.294,0,0,1-.326-.628ZM85.558,23.707a34.815,34.815,0,0,1,.307,4.685A43.023,43.023,0,0,1,82.4,44.713L68.481,84.952A45.573,45.573,0,0,0,85.558,23.707Z" transform="translate(-0.005 0)" fill="#fff"/>
    </g>
    <g id="react_copy" data-name="react copy" transform="translate(916.248 950.363)">
      <path id="Path_378" data-name="Path 378" d="M90.688,45.344A45.344,45.344,0,1,1,45.344,0,45.282,45.282,0,0,1,90.688,45.344Z" transform="translate(0)" fill="#fff"/>
      <g id="Group_209" data-name="Group 209" transform="translate(1.336 12.038)">
        <path id="Path_379" data-name="Path 379" d="M155.36,126.8c-.213-1.427-.494-2.9-.842-4.4q-.461-1.979-1.07-4.031a87.949,87.949,0,0,0-4.173-11.082q-1.119-2.471-2.406-4.955-1.133-2.185-2.389-4.364t-2.585-4.251q-1.5-2.351-3.087-4.558A87.519,87.519,0,0,0,131.3,80q-1.468-1.552-2.956-2.939-1.691-1.582-3.391-2.932c-7.383-5.861-13.992-7.621-18.613-4.955s-6.4,9.272-5.017,18.6c.211,1.427.494,2.9.844,4.4q.455,1.979,1.068,4.031a87.547,87.547,0,0,0,4.175,11.082q1.116,2.471,2.4,4.953,1.133,2.188,2.389,4.366t2.586,4.251q1.5,2.354,3.087,4.56a87.467,87.467,0,0,0,7.51,9.156q1.469,1.552,2.957,2.941,1.691,1.582,3.389,2.93a33.867,33.867,0,0,0,7.77,4.784,45.152,45.152,0,0,0,15.815-7.507A30.946,30.946,0,0,0,155.36,126.8ZM151.2,137.046c-.539,2.328-1.529,3.924-2.945,4.74s-3.291.877-5.576.181a26.9,26.9,0,0,1-8.362-4.79q-1.51-1.2-3.024-2.6-1.483-1.377-2.957-2.937c-1.684-1.782-3.35-3.733-4.975-5.826q-1.627-2.1-3.194-4.373c-1.512-2.2-2.972-4.51-4.36-6.916s-2.663-4.827-3.809-7.235q-1.188-2.49-2.189-4.953c-1-2.454-1.858-4.873-2.56-7.222-.407-1.37-.764-2.713-1.062-4.029-.307-1.34-.557-2.65-.746-3.922a26.877,26.877,0,0,1,.033-9.635c.539-2.328,1.531-3.924,2.945-4.74a5.291,5.291,0,0,1,2.685-.663,9.952,9.952,0,0,1,2.891.483,26.884,26.884,0,0,1,8.362,4.788q1.51,1.2,3.024,2.608,1.485,1.374,2.956,2.934c1.686,1.782,3.352,3.733,4.979,5.828q1.627,2.1,3.194,4.373c1.51,2.2,2.971,4.51,4.359,6.914s2.663,4.827,3.809,7.235q1.188,2.493,2.189,4.955c1,2.454,1.858,4.871,2.56,7.22q.611,2.054,1.064,4.029c.305,1.34.555,2.65.744,3.922A26.865,26.865,0,0,1,151.2,137.046Z" transform="translate(-84.333 -67.961)" fill="#1d207e"/>
        <path id="Path_380" data-name="Path 380" d="M81.96,189.754q-2.013-.794-4.233-1.471-1.943-.591-4.026-1.09a87.609,87.609,0,0,0-11.684-1.925c-1.8-.18-3.631-.311-5.489-.394-1.64-.076-3.3-.115-4.977-.115s-3.337.039-4.979.115c-1.86.083-3.694.217-5.491.394A87.582,87.582,0,0,0,29.4,187.193q-2.079.5-4.026,1.09-2.215.675-4.233,1.471c-8.767,3.461-13.6,8.306-13.6,13.642s4.831,10.181,13.6,13.644q2.013.794,4.231,1.471,1.943.591,4.026,1.088a87.587,87.587,0,0,0,11.686,1.927c1.8.178,3.631.309,5.491.394,1.64.076,3.3.113,4.977.113s3.335-.037,4.975-.113q2.79-.128,5.491-.394A87.34,87.34,0,0,0,73.7,219.6q2.079-.5,4.025-1.09c1.475-.45,2.889-.94,4.231-1.47,8.769-3.463,13.6-8.308,13.6-13.644S90.729,193.215,81.96,189.754Zm6.8,18.561a26.854,26.854,0,0,1-8.327,4.847q-1.8.708-3.77,1.316-1.935.6-4.02,1.092c-2.386.568-4.908,1.035-7.535,1.4q-2.626.364-5.382.579c-2.66.213-5.393.32-8.171.32s-5.512-.107-8.171-.318c-1.834-.144-3.633-.339-5.384-.581-2.626-.361-5.149-.827-7.535-1.4q-2.082-.494-4.02-1.092-1.971-.605-3.77-1.316a26.857,26.857,0,0,1-8.327-4.847c-1.747-1.631-2.634-3.285-2.634-4.919s.887-3.289,2.634-4.919a26.856,26.856,0,0,1,8.327-4.847q1.8-.708,3.77-1.316,1.935-.6,4.02-1.092c2.386-.568,4.908-1.035,7.535-1.4,1.751-.242,3.55-.437,5.384-.581,2.66-.211,5.393-.318,8.171-.318s5.512.107,8.171.32q2.751.214,5.382.579c2.626.361,5.149.827,7.535,1.4q2.082.494,4.02,1.092,1.971.605,3.77,1.316a26.86,26.86,0,0,1,8.327,4.847c1.747,1.631,2.634,3.285,2.634,4.919S90.5,206.685,88.756,208.315Z" transform="translate(-7.544 -164.071)" fill="#1d207e"/>
        <path id="Path_381" data-name="Path 381" d="M150.343,69.175c-4.621-2.667-11.23-.907-18.613,4.955q-1.693,1.347-3.389,2.932-1.485,1.385-2.957,2.941a87.7,87.7,0,0,0-7.512,9.156q-1.58,2.2-3.085,4.558-1.33,2.074-2.585,4.251t-2.389,4.366q-1.285,2.479-2.4,4.953a87.66,87.66,0,0,0-4.175,11.082q-.611,2.052-1.07,4.033-.522,2.254-.842,4.4a30.929,30.929,0,0,0,.046,10.92,45.125,45.125,0,0,0,15.815,7.509,33.86,33.86,0,0,0,7.77-4.784q1.7-1.347,3.391-2.93,1.485-1.385,2.956-2.939a87.744,87.744,0,0,0,7.51-9.158q1.58-2.2,3.087-4.56,1.33-2.074,2.585-4.251t2.389-4.364q1.285-2.479,2.406-4.955A87.811,87.811,0,0,0,153.449,96.2q.608-2.049,1.068-4.031c.35-1.5.631-2.972.844-4.4C156.745,78.447,154.965,71.844,150.343,69.175Zm-.914,25.937c-.7,2.349-1.558,4.766-2.56,7.22q-1,2.457-2.189,4.955c-1.146,2.408-2.419,4.829-3.809,7.235s-2.848,4.718-4.358,6.914q-1.566,2.276-3.2,4.375c-1.625,2.093-3.291,4.044-4.977,5.826q-1.468,1.554-2.956,2.935-1.51,1.4-3.024,2.606a26.9,26.9,0,0,1-8.362,4.79c-2.286.7-4.162.637-5.576-.181s-2.406-2.412-2.944-4.74a26.872,26.872,0,0,1-.033-9.635c.189-1.271.439-2.582.744-3.922q.45-1.974,1.064-4.029c.7-2.349,1.558-4.768,2.56-7.222q1-2.457,2.189-4.953c1.146-2.408,2.419-4.829,3.809-7.235s2.848-4.719,4.36-6.916q1.563-2.274,3.192-4.371c1.627-2.1,3.293-4.046,4.977-5.828Q129.811,81.378,131.3,80q1.513-1.4,3.024-2.606a26.892,26.892,0,0,1,8.362-4.788,9.951,9.951,0,0,1,2.891-.483,5.286,5.286,0,0,1,2.685.663c1.416.816,2.406,2.412,2.945,4.74a26.872,26.872,0,0,1,.033,9.635c-.189,1.271-.439,2.582-.746,3.922C150.193,92.4,149.836,93.742,149.429,95.112Z" transform="translate(-84.334 -67.961)" fill="#1d207e"/>
        <ellipse id="Ellipse_53" data-name="Ellipse 53" cx="8.271" cy="8.271" rx="8.271" ry="8.271" transform="translate(35.737 31.054)" fill="#1d207e"/>
      </g>
    </g>
    <g id="Group_244" data-name="Group 244" transform="translate(827.854 948.408)">
      <path id="Path_414" data-name="Path 414" d="M88.515,207.026l19.028-29.055L90.3,151.347h13.141l11.166,17.888,10.938-17.888h13.027l-17.319,27.042,19.028,28.637H126.723L114.379,187.77,102,207.026Z" fill="#fff"/>
      <path id="Path_415" data-name="Path 415" d="M317.2,207.026h-9.913V201.1a16.012,16.012,0,0,1-5.83,5.146,14.962,14.962,0,0,1-6.779,1.69,15.362,15.362,0,0,1-11.907-5.6q-4.956-5.6-4.956-15.629,0-10.255,4.823-15.591a15.726,15.726,0,0,1,12.192-5.336,15.106,15.106,0,0,1,11.7,5.621V151.347H317.2v55.679Zm-28.485-21.041q0,6.457,1.785,9.343a8.063,8.063,0,0,0,7.216,4.178,7.855,7.855,0,0,0,6.267-3.133q2.582-3.133,2.583-9.362,0-6.95-2.507-10.008a7.934,7.934,0,0,0-6.419-3.057,8.018,8.018,0,0,0-6.362,3.02Q288.716,179.984,288.716,185.985Z" transform="translate(-138.119 0)" fill="#fff"/>
    </g>
    <g id="Group_245" data-name="Group 245" transform="translate(934.34 965.963)">
      <path id="Path_417" data-name="Path 417" d="M162.592,190.383H149.847l-5.066-13.18H121.587l-4.789,13.18H104.369l22.6-58.025h12.389ZM141.02,167.426l-8-21.532-7.837,21.532Z" fill="#fff"/>
      <path id="Path_418" data-name="Path 418" d="M360.41,142.649V132.358h11.122v10.291Zm0,47.734V148.348h11.122v42.034H360.41Z" transform="translate(-195.736)" fill="#fff"/>
    </g>
    <g id="redux-seeklogo.com" transform="translate(1033 950)">
      <path id="Path_419" data-name="Path 419" d="M57.353,54.88a5.917,5.917,0,0,0-.632-11.8h-.211a5.893,5.893,0,0,0-5.688,6.11,6.049,6.049,0,0,0,1.685,3.9c-3.581,7.058-9.059,12.219-17.275,16.538a28.484,28.484,0,0,1-17.169,3.265c-4.74-.632-8.427-2.739-10.744-6.215a15.473,15.473,0,0,1-.843-16.327,24.8,24.8,0,0,1,7.163-8.427c-.421-1.369-1.053-3.687-1.369-5.372C-3,47.612-1.422,62.57,3.212,69.627,6.688,74.894,13.746,78.16,21.54,78.16a25.893,25.893,0,0,0,6.32-.737A40.422,40.422,0,0,0,57.353,54.88ZM75.892,41.819c-8.005-9.375-19.8-14.536-33.285-14.536H40.921a5.788,5.788,0,0,0-5.161-3.16h-.211a5.9,5.9,0,0,0,.211,11.8h.211a5.933,5.933,0,0,0,5.161-3.581h1.9a40.146,40.146,0,0,1,22.436,6.847A28.217,28.217,0,0,1,76.629,52.668a14.6,14.6,0,0,1-.211,12.43,15.464,15.464,0,0,1-14.431,8.638,26.939,26.939,0,0,1-10.323-2.212c-1.159,1.053-3.265,2.739-4.74,3.792a32.514,32.514,0,0,0,13.588,3.265C70.625,78.581,78.1,73,80.948,67.415,84,61.306,83.792,50.772,75.892,41.819ZM22.383,56.671a5.917,5.917,0,0,0,5.9,5.688h.211a5.9,5.9,0,0,0-.211-11.8h-.211a1.792,1.792,0,0,0-.737.105,38.6,38.6,0,0,1-5.477-23.385,28.258,28.258,0,0,1,6.215-16.327c3.055-3.9,8.953-5.794,12.956-5.9C52.192,4.845,56.932,18.75,57.248,24.333c1.369.316,3.687,1.053,5.267,1.58C61.251,8.848,50.717,0,40.605,0c-9.48,0-18.223,6.847-21.7,16.959C14.062,30.442,17.221,43.4,23.12,53.616A4.732,4.732,0,0,0,22.383,56.671Z" transform="translate(0)" fill="#fff"/>
    </g>
    <g id="Group_246" data-name="Group 246" transform="translate(1014 452)">
      <path id="Path_429" data-name="Path 429" d="M150.81,450.38a16.354,16.354,0,0,0,16.511-16.2v-23.75a3.873,3.873,0,1,0-7.747,0v23.75c0,9.994-14.276,12.266-17.147,2.365a3.861,3.861,0,1,0-7.4,2.2A16.362,16.362,0,0,0,150.81,450.38Zm0,0" transform="translate(0 -0.38)" fill="#fff"/>
      <path id="Path_430" data-name="Path 430" d="M216.942,442.569c-4.243,0-8.41-1.572-12.1-3.445a3.751,3.751,0,0,0-3.519,6.623c14.468,8.028,32.828,4.238,32.828-8.7,0-9.59-9.4-11.558-17.467-13.02-5.342-.968-8.954-1.461-8.971-4.98-.012-2.959,2.558-6.071,9.035-6.071,7.486,0,10.913,3.647,13.244,3.647a3.731,3.731,0,0,0,1.754-7.017c-17.179-9.161-31.763-1.555-31.78,9.765-.017,10.309,10.115,11.834,16.718,12.914,6.1,1,9.718,1.651,9.745,5.012C226.473,441.743,219.99,442.569,216.942,442.569Zm0,0" transform="translate(-23.828)" fill="#fff"/>
    </g>
    <path id="Path_431" data-name="Path 431" d="M112.96,95.427c-1.635.618-1.569.629-2.434-.946a13.676,13.676,0,0,1-1.743-6.412,14.863,14.863,0,0,1,1.175-5.6c.541-1.428-.163-1.932-1.4-2.062a13.479,13.479,0,0,0-2.731.009c-2.346.24-2.577.442-3.2,2.72a23.192,23.192,0,0,1-1.279,4c-1.514,3.158-3.235,6.2-5,9.218a7.9,7.9,0,0,1-1.025,1.593A11.953,11.953,0,0,1,93.457,91.7a15.846,15.846,0,0,1,1.3-6.238.982.982,0,0,0-.544-1.391,2.358,2.358,0,0,0-.834-.273,12.71,12.71,0,0,0-4.474.31A1.555,1.555,0,0,0,87.668,85.4a19.747,19.747,0,0,1-1.336,4.214q-2.508,5.631-5,11.271c-1.452,3.263-2.883,6.535-4.6,9.669-.121.222-.222.607-.526.53s-.2-.456-.214-.715a18.556,18.556,0,0,1,.834-5.376c.68-2.792,1.424-5.572,2.146-8.355a1.426,1.426,0,0,0-.8-1.719,2.445,2.445,0,0,0-2.933.194,17.959,17.959,0,0,0,.154-3.129c-.11-2.222-1.14-3.668-2.933-4a6.035,6.035,0,0,0-3.719.691,18.775,18.775,0,0,0-6.767,5.6,2.451,2.451,0,0,1-.746.7q-5.192,2.829-10.373,5.675a.629.629,0,0,1-.9-.141,48.239,48.239,0,0,0-5.754-4.962A63.859,63.859,0,0,1,36.1,88.662,13.3,13.3,0,0,1,32.933,83.4a12.072,12.072,0,0,1,1.356-9.383,27.9,27.9,0,0,1,7.785-8.58,75.029,75.029,0,0,1,15.969-9.319c6.355-2.784,12.948-4.577,19.969-4.306a17.588,17.588,0,0,1,7.959,1.952,5.905,5.905,0,0,1,3.244,4.4,10.765,10.765,0,0,1-1.252,6.7c-2.374,4.685-6.148,8-10.609,10.6a35.261,35.261,0,0,1-11.962,4.256A22.083,22.083,0,0,1,58.339,80a10.9,10.9,0,0,1-7.055-3.494.66.66,0,0,0-.847-.249c-.372.18-.343.51-.308.827a2.865,2.865,0,0,0,.163.645A7.6,7.6,0,0,0,52.8,80.954c2.821,2.3,6.164,2.969,9.673,3.037a40.109,40.109,0,0,0,10.164-1.168c7.55-1.8,13.874-5.508,18.491-11.854A20.262,20.262,0,0,0,95.479,58.21a11.163,11.163,0,0,0-3.332-7.893,18.679,18.679,0,0,0-9.394-4.667,34.936,34.936,0,0,0-11.817-.515A48.757,48.757,0,0,0,60.8,47.39a90.431,90.431,0,0,0-14.558,6.461,62.446,62.446,0,0,0-13.21,9.5,31.446,31.446,0,0,0-8.179,11.7,10.728,10.728,0,0,0-.757,6.144,17.336,17.336,0,0,0,3.758,7.279,48.741,48.741,0,0,0,9.414,8.261c2.74,1.967,5.607,3.758,8.239,5.873.746.6.742.6-.136,1.058-1.025.535-2.062,1.05-3.07,1.619a44.872,44.872,0,0,0-11.2,8.25,12.679,12.679,0,0,0-3.149,5.745,54.083,54.083,0,0,0,9.224,10.525c5.988-.466,10.571-3.582,13.958-8.736a17.922,17.922,0,0,0,2.689-8.276,19.347,19.347,0,0,0-.783-7.653c-.134-.44-.634-.878-.438-1.265.183-.357.733-.537,1.138-.77,1.633-.949,3.27-1.884,4.951-2.85a1.444,1.444,0,0,1-.13.8c-.964,3.536-1.635,7.1-.9,10.776a15,15,0,0,0,2.658,6.337,4.077,4.077,0,0,0,6.148-.053,29.343,29.343,0,0,0,3.008-5.493c.484-1.039.929-2.095,1.391-3.145a35.055,35.055,0,0,0-.035,3.723,7.24,7.24,0,0,0,.869,3.475,2.533,2.533,0,0,0,3.5.973,7.777,7.777,0,0,0,3.085-3.211,149.39,149.39,0,0,0,8.549-17.184c.519-1.261,1.052-2.52,1.639-3.921.09.46.15.742.2,1.023a26.824,26.824,0,0,0,2.9,8.019,1.137,1.137,0,0,1-.112,1.428c-1.285,1.749-2.694,3.4-4.082,5.059a43.541,43.541,0,0,0-3.4,4.278c-.884,1.386-.376,2.806,1.1,3.12a6.293,6.293,0,0,0,1.4.119,14.688,14.688,0,0,0,7.158-2.058c2.977-1.7,4.742-4.183,4.661-7.724a12.225,12.225,0,0,0-1.122-4.634.783.783,0,0,1,.064-.874,85.763,85.763,0,0,0,5.558-9.235,8.034,8.034,0,0,1,.986-1.732c.064.222.114.361.143.5a24.972,24.972,0,0,0,2.6,7.578c.37.645.185.973-.326,1.4a20.2,20.2,0,0,0-4.405,5.233,9.862,9.862,0,0,0-1.52,5.033,2.69,2.69,0,0,0,3.53,2.742,15.706,15.706,0,0,0,5.677-2.583c3.73-2.731,4.823-5.611,3.655-9.632-.458-1.582-.449-1.556,1.138-2.035a23.094,23.094,0,0,1,10.529-.515q.6.1,1.188.227.31-1.885.484-3.816A22.441,22.441,0,0,0,112.96,95.427ZM39.636,123.736a7.516,7.516,0,0,1-3.12.425,2.4,2.4,0,0,1-2.262-2.458,8.839,8.839,0,0,1,1.1-4.529c1.3-2.6,3.472-4.359,5.693-6.089a65.4,65.4,0,0,1,6.824-4.518c.711-.422.722-.418.884.429a12.536,12.536,0,0,1,.33,3.164C49.267,116.087,44.963,121.85,39.636,123.736Zm32.3-29.881a36.528,36.528,0,0,1-2.06,7.226c-1.184,3.208-2.337,6.432-3.827,9.517a7.479,7.479,0,0,1-1.252,2c-.521.548-.984.484-1.344-.185a9.519,9.519,0,0,1-.731-3.818,21.993,21.993,0,0,1,4.74-13.522,5.929,5.929,0,0,1,3.248-2.322C71.648,92.509,72.082,92.888,71.934,93.856Zm20.509,15.687a9.884,9.884,0,0,1-4.223,3.893c-.189.095-.433.262-.605.04s.1-.348.218-.48c1.763-1.925,3.5-3.866,5.072-5.955.024-.033.084-.037.218-.095A5.191,5.191,0,0,1,92.443,109.543Zm12.171-.075c-.262.123-.565.354-.821.156-.282-.218-.17-.6-.084-.9a15.742,15.742,0,0,1,1.683-3.831,14.17,14.17,0,0,1,2.251-2.715c.343-.33.5-.29.614.185a6.457,6.457,0,0,1,.141,1.468A5.929,5.929,0,0,1,104.614,109.468Z" transform="translate(1233.23 787.207)" fill="#fff"/>
  </g>
</svg>
