<svg xmlns="http://www.w3.org/2000/svg" width="203.371" height="210.375" viewBox="0 0 203.371 210.375">
  <g id="Group_236" data-name="Group 236" transform="translate(-1033.506 -283.992)">
    <path id="Subtraction_9" data-name="Subtraction 9" d="M121.023,210.376H85.682a4.005,4.005,0,0,1-4-4V194.545a88.484,88.484,0,0,1-25.42-10.233l-3.287,3.344a13.171,13.171,0,0,1-18.859,0l-11.787-12a13.745,13.745,0,0,1,0-19.2l2.876-2.927a91.886,91.886,0,0,1-10.912-26.3H4a4,4,0,0,1-4-4V87.125a4,4,0,0,1,4-4H14.3a91.973,91.973,0,0,1,9.665-24.179L22.1,56.987a13.746,13.746,0,0,1,.329-19.193L34.423,26.008a13.174,13.174,0,0,1,18.857.335l.939.989A88.48,88.48,0,0,1,81.681,15.845V4a4,4,0,0,1,4-4h35.341a4,4,0,0,1,4,4V16.682a88.718,88.718,0,0,1,23.884,10.495c.244-.166.492-.322.736-.465l5.775-3.394a13.127,13.127,0,0,1,13.238-.059,13.442,13.442,0,0,1,4.979,5.028l8.335,14.693A13.759,13.759,0,0,1,179.725,59.5a92.009,92.009,0,0,1,9.35,23.629h10.3a4,4,0,0,1,4,4V123.24a4,4,0,0,1-4,4H189.08a91.983,91.983,0,0,1-9.656,24.178l1.624,1.654a13.744,13.744,0,0,1,0,19.2l-11.787,12a13.171,13.171,0,0,1-18.859,0l-1.21-1.232a88.693,88.693,0,0,1-24.168,10.673v12.669A4.005,4.005,0,0,1,121.023,210.376ZM78.191,147.392h0a44.979,44.979,0,0,0,13.146,5.456V157.3a4,4,0,0,0,4,4h14.418a4,4,0,0,0,4-4v-4.9a45.174,45.174,0,0,0,12.5-5.692l.626.658a6.671,6.671,0,0,0,9.755,0l6.1-6.4a7.5,7.5,0,0,0,0-10.238l-.841-.883a49.94,49.94,0,0,0,4.994-12.9h3.393a4,4,0,0,0,4-4V97.425a4,4,0,0,0-4-4h-3.4a49.951,49.951,0,0,0-4.838-12.6,7.493,7.493,0,0,0,1.165-8.81L138.9,64.177a6.871,6.871,0,0,0-5.98-3.621,6.649,6.649,0,0,0-3.443.971l-2.987,1.81c-.137.083-.263.165-.384.25a45.149,45.149,0,0,0-12.351-5.594V53.088a4,4,0,0,0-4-4H95.339a4,4,0,0,0-4,4v4.457a45.041,45.041,0,0,0-14.2,6.125l-.489-.531a6.67,6.67,0,0,0-9.753-.179l-6.2,6.286a7.505,7.505,0,0,0-.17,10.237l.963,1.047a49.965,49.965,0,0,0-5,12.9H53.089a4,4,0,0,0-4,4v15.527a4,4,0,0,0,4,4H56.48a49.82,49.82,0,0,0,5.646,14.028l-1.489,1.562a7.5,7.5,0,0,0,0,10.237l6.1,6.4a6.671,6.671,0,0,0,9.755,0l1.7-1.785Z" transform="translate(1033.506 283.992)" fill="#fff"/>
  </g>
</svg>
