<svg xmlns="http://www.w3.org/2000/svg" width="252.997" height="162.799" viewBox="0 0 252.997 162.799">
  <g id="Group_232" data-name="Group 232" transform="translate(-242.638 -249.318)">
    <path id="Union_7" data-name="Union 7" d="M60.653,137.784l-58-58.919c-4-4.045-3.423-11.238,1.328-16.013.395-.395.8-.754,1.215-1.1.048-.048.1-.108.144-.156l58-58.883c4.021-4.081,11.1-3.483,15.858,1.3,4.727,4.775,5.332,11.956,1.334,16.037L29.721,71.624,77.8,120.43c4.021,4.057,3.417,11.238-1.311,16.049a13.028,13.028,0,0,1-9.1,4A9.331,9.331,0,0,1,60.653,137.784Z" transform="translate(242.638 260.881)" fill="#fff"/>
    <path id="Union_8" data-name="Union 8" d="M60.653,137.792l-58-58.919c-4-4.045-3.423-11.238,1.328-16.013.395-.395.8-.754,1.215-1.1.048-.048.1-.108.144-.156l58-58.883c4.021-4.081,11.1-3.507,15.834,1.3C83.907,8.8,84.505,15.98,80.514,20.061L29.709,71.62,77.8,120.438c4.021,4.057,3.417,11.238-1.311,16.049a13.028,13.028,0,0,1-9.1,4A9.331,9.331,0,0,1,60.653,137.792Z" transform="translate(495.635 401.625) rotate(180)" fill="#fff"/>
    <rect id="Rectangle_896" data-name="Rectangle 896" width="25.014" height="162.589" rx="12.507" transform="translate(380.987 249.318) rotate(17)" fill="#fff"/>
  </g>
</svg>
