<svg xmlns="http://www.w3.org/2000/svg" width="46" height="46" viewBox="0 0 46 46">
  <g id="Group_261" data-name="Group 261" transform="translate(-794.747 -468.747)">
    <circle id="Ellipse_63" data-name="Ellipse 63" cx="23" cy="23" r="23" transform="translate(794.747 468.747)" fill="#fff"/>
    <path id="Union_9" data-name="Union 9" d="M5.944,14.829.422,8.787A1.636,1.636,0,0,1,.006,7.768,1.669,1.669,0,0,1,.419,6.5L5.937.46A1.433,1.433,0,0,1,8.085.509a1.762,1.762,0,0,1,.054,2.34l-2.833,3.1H16.969a1.693,1.693,0,1,1,0,3.386H5.309l2.837,3.1a1.763,1.763,0,0,1-.053,2.341,1.52,1.52,0,0,1-1.117.51A1.387,1.387,0,0,1,5.944,14.829Z" transform="translate(809.758 501.089) rotate(-90)" fill="#367fff"/>
  </g>
</svg>
