<svg xmlns="http://www.w3.org/2000/svg" width="54" height="54" viewBox="0 0 54 54">
  <g id="Group_259" data-name="Group 259" transform="translate(-1021 -799)">
    <g id="Group_222" data-name="Group 222" transform="translate(730 527)">
      <circle id="Ellipse_55" data-name="Ellipse 55" cx="27" cy="27" r="27" transform="translate(291 272)" fill="#377ef6"/>
    </g>
    <path id="Union_5" data-name="Union 5" d="M1253.067,17165a2.424,2.424,0,0,1-2.415-2.258,12.634,12.634,0,0,1-3.631-1.461l-.467.479a1.88,1.88,0,0,1-2.688,0l-1.684-1.715a1.96,1.96,0,0,1,0-2.734l.413-.42a13.1,13.1,0,0,1-1.561-3.771,2.378,2.378,0,0,1-2.035-2.354v-1.537a2.377,2.377,0,0,1,2.036-2.354,13.112,13.112,0,0,1,1.383-3.469l-.266-.283a1.96,1.96,0,0,1,.047-2.734l1.71-1.68a1.872,1.872,0,0,1,2.688.047l.134.141a12.668,12.668,0,0,1,3.921-1.641,2.42,2.42,0,0,1,2.416-2.256h1.34a2.419,2.419,0,0,1,2.42,2.377,12.632,12.632,0,0,1,3.406,1.5c.034-.023.069-.047.105-.068l.823-.486a1.889,1.889,0,0,1,2.6.711l1.189,2.094a1.962,1.962,0,0,1-.322,2.355,13.115,13.115,0,0,1,1.34,3.395,2.378,2.378,0,0,1,2.032,2.354v1.537a2.378,2.378,0,0,1-2.031,2.354,13.123,13.123,0,0,1-1.383,3.473l.231.234a1.954,1.954,0,0,1,0,2.736l-1.68,1.711a1.873,1.873,0,0,1-2.688,0l-.172-.176a12.647,12.647,0,0,1-3.448,1.523,2.423,2.423,0,0,1-2.42,2.379Z" transform="translate(-205.5 -16324)" fill="#fff"/>
    <path id="Union_6" data-name="Union 6" d="M1246.316,17151a1.29,1.29,0,0,1-1.288-1.205,6.4,6.4,0,0,1-1.876-.777l-.244.256a.955.955,0,0,1-1.39,0l-.87-.916a1.056,1.056,0,0,1,0-1.455l.213-.223a7.127,7.127,0,0,1-.81-2.016,1.232,1.232,0,0,1-1.052-1.219v-.895a1.228,1.228,0,0,1,1.051-1.213,7.1,7.1,0,0,1,.716-1.854l-.136-.148a1.065,1.065,0,0,1,.026-1.459l.882-.9a.952.952,0,0,1,1.39.025l.071.078a6.441,6.441,0,0,1,2.029-.875,1.29,1.29,0,0,1,1.288-1.205h.615a1.293,1.293,0,0,1,1.291,1.271,6.426,6.426,0,0,1,1.759.8.354.354,0,0,1,.053-.035l.426-.26a.964.964,0,0,1,1.347.379l.611,1.115a1.074,1.074,0,0,1-.164,1.258,7.133,7.133,0,0,1,.693,1.813,1.228,1.228,0,0,1,1.051,1.213v.895a1.233,1.233,0,0,1-1.052,1.219,7.14,7.14,0,0,1-.715,1.852l.123.129a1.07,1.07,0,0,1,0,1.459l-.869.908a.953.953,0,0,1-1.395,0l-.088-.092a6.5,6.5,0,0,1-1.781.811,1.291,1.291,0,0,1-1.291,1.27Z" transform="translate(-198.5 -16317)" fill="#377ef6"/>
  </g>
</svg>
