<svg xmlns="http://www.w3.org/2000/svg" width="53" height="52" viewBox="0 0 53 52">
  <g id="Group_266" data-name="Group 266" transform="translate(20976 13221)">
    <ellipse id="Ellipse_58" data-name="Ellipse 58" cx="26.5" cy="26" rx="26.5" ry="26" transform="translate(-20976 -13221)" fill="#367fff"/>
    <g id="envelopes" transform="translate(-20961 -13265)">
      <g id="Group_196" data-name="Group 196" transform="translate(1.187 61)">
        <g id="Group_195" data-name="Group 195">
          <path id="Path_372" data-name="Path 372" d="M46.088,61H26.611a2.053,2.053,0,0,0-.89.208L36.3,71.79l2.372-2.279h0l8.3-8.3A2.053,2.053,0,0,0,46.088,61Z" transform="translate(-25.721 -61)" fill="#fff"/>
        </g>
      </g>
      <g id="Group_198" data-name="Group 198" transform="translate(15.61 62.187)">
        <g id="Group_197" data-name="Group 197">
          <path id="Path_373" data-name="Path 373" d="M346.026,86.728l-7.813,7.813,7.813,7.813a2.053,2.053,0,0,0,.208-.89V87.617A2.052,2.052,0,0,0,346.026,86.728Z" transform="translate(-338.213 -86.728)" fill="#fff"/>
        </g>
      </g>
      <g id="Group_200" data-name="Group 200" transform="translate(0 62.187)">
        <g id="Group_199" data-name="Group 199">
          <path id="Path_374" data-name="Path 374" d="M.208,86.721a2.053,2.053,0,0,0-.208.89v13.846a2.053,2.053,0,0,0,.208.89l7.813-7.813Z" transform="translate(0 -86.721)" fill="#fff"/>
        </g>
      </g>
      <g id="Group_202" data-name="Group 202" transform="translate(1.187 70.979)">
        <g id="Group_201" data-name="Group 201">
          <path id="Path_375" data-name="Path 375" d="M39.158,277.211l-2.372,2.28a.692.692,0,0,1-.979,0l-2.28-2.28-7.813,7.813a2.053,2.053,0,0,0,.89.208H46.081a2.052,2.052,0,0,0,.89-.208Z" transform="translate(-25.714 -277.211)" fill="#fff"/>
        </g>
      </g>
    </g>
  </g>
</svg>
