<svg xmlns="http://www.w3.org/2000/svg" width="53" height="52" viewBox="0 0 53 52">
  <g id="Group_239" data-name="Group 239" transform="translate(-604 -551)">
    <ellipse id="Ellipse_58" data-name="Ellipse 58" cx="26.5" cy="26" rx="26.5" ry="26" transform="translate(604 551)" fill="#367fff"/>
    <g id="Group_102" data-name="Group 102" transform="translate(623.373 563.791)">
      <path id="Path_65" data-name="Path 65" d="M-19232.809,18488.824h5.482l.016-11.383h3.887l.641-5.193h-4.527v-3.258a1.6,1.6,0,0,1,.514-.85,3.027,3.027,0,0,1,1.139-.461h2.875v-4.637a20.835,20.835,0,0,0-4.527-.1c-1.488.273-2.2.234-3.506,1.492a7.41,7.41,0,0,0-1.729,3.463v4.35h-4.045v5.326h3.883Z" transform="translate(19236.986 -18461.748)" fill="#fff"/>
      <path id="facebook" d="M102.869,24.489l-2.329-.167c-.182,0-3.673-.233-5.086.742a6.511,6.511,0,0,0-2.674,3.245,34.907,34.907,0,0,0-.318,5.506H88.385v5.954h3.84V50.592h.787V38.915H89.089V34.346h3.922V30.982c0-3.9,2.382-6.024,5.862-6.024a32.268,32.268,0,0,1,3.516.18v4.077h-2.4c-1.893,0-2.26.9-2.26,2.22v2.913h4.527l-.59,4.569H97.73V50.593h.579v-11.2h3.947l.613-5.238V33.6l-4.56.114V30.76s.194-.933.843-1.028,3.717,0,3.717,0V24.489Zm2.39-1.042" transform="translate(-88.385 -23.447)" fill="#fff"/>
    </g>
  </g>
</svg>
