<svg xmlns="http://www.w3.org/2000/svg" width="53" height="52" viewBox="0 0 53 52">
  <g id="Group_240" data-name="Group 240" transform="translate(-683 -551)">
    <ellipse id="Ellipse_59" data-name="Ellipse 59" cx="26.5" cy="26" rx="26.5" ry="26" transform="translate(683 551)" fill="#367fff"/>
    <g id="linkedin" transform="translate(697.666 564.281)">
      <path id="Path_369" data-name="Path 369" d="M2.94-.668a2.709,2.709,0,1,0-.068,5.4h.034a2.71,2.71,0,1,0,.034-5.4Zm0,0" transform="translate(0 0.668)" fill="#fff"/>
      <path id="Path_370" data-name="Path 370" d="M8.109,198.312h5.2v15.636h-5.2Zm0,0" transform="translate(-7.802 -190.775)" fill="#fff"/>
      <path id="Path_371" data-name="Path 371" d="M231.1,188.625c-2.8,0-4.684,2.634-4.684,2.634v-2.268h-5.2v15.636h5.2V195.9a3.56,3.56,0,0,1,.171-1.268,2.845,2.845,0,0,1,2.666-1.9c1.881,0,2.633,1.434,2.633,3.536v8.365h5.2v-8.965C237.079,190.86,234.515,188.625,231.1,188.625Zm0,0" transform="translate(-212.835 -181.455)" fill="#fff"/>
    </g>
  </g>
</svg>
