<svg xmlns="http://www.w3.org/2000/svg" width="45.951" height="45.95" viewBox="0 0 45.951 45.95">
  <g id="react_copy" data-name="react copy" transform="translate(0)">
    <path id="Path_378" data-name="Path 378" d="M45.95,22.975A22.975,22.975,0,1,1,22.975,0,22.944,22.944,0,0,1,45.95,22.975Z" transform="translate(0)" fill="#02182b"/>
    <g id="Group_209" data-name="Group 209" transform="translate(0.677 6.099)">
      <path id="Path_379" data-name="Path 379" d="M128.476,97.773c-.108-.723-.25-1.468-.427-2.229q-.234-1-.542-2.042a44.562,44.562,0,0,0-2.115-5.615q-.567-1.252-1.219-2.51-.574-1.107-1.211-2.211t-1.31-2.154q-.761-1.191-1.564-2.31a44.343,44.343,0,0,0-3.805-4.64q-.744-.786-1.5-1.489-.857-.8-1.718-1.485c-3.741-2.97-7.089-3.862-9.431-2.51s-3.244,4.7-2.542,9.424c.107.723.25,1.468.428,2.229q.231,1,.541,2.042a44.361,44.361,0,0,0,2.116,5.615q.566,1.252,1.218,2.509.574,1.108,1.211,2.212t1.31,2.154q.762,1.193,1.564,2.311a44.32,44.32,0,0,0,3.805,4.639q.744.786,1.5,1.49.857.8,1.717,1.485a17.16,17.16,0,0,0,3.937,2.424,22.878,22.878,0,0,0,8.013-3.8A15.68,15.68,0,0,0,128.476,97.773Zm-2.106,5.192a3,3,0,0,1-4.317,2.494,13.628,13.628,0,0,1-4.237-2.427q-.765-.608-1.532-1.319-.751-.7-1.5-1.488c-.853-.9-1.7-1.892-2.521-2.952q-.824-1.062-1.619-2.216c-.766-1.113-1.506-2.285-2.209-3.5s-1.349-2.446-1.93-3.666q-.6-1.262-1.109-2.509c-.507-1.243-.942-2.469-1.3-3.659-.206-.694-.387-1.375-.538-2.041s-.282-1.343-.378-1.987a13.618,13.618,0,0,1,.017-4.882,3.52,3.52,0,0,1,1.492-2.4,2.681,2.681,0,0,1,1.361-.336,5.042,5.042,0,0,1,1.465.245,13.621,13.621,0,0,1,4.237,2.426q.765.608,1.532,1.321.753.7,1.5,1.486c.854.9,1.7,1.892,2.523,2.953q.824,1.062,1.619,2.216c.765,1.113,1.505,2.285,2.208,3.5s1.349,2.446,1.93,3.666q.6,1.263,1.109,2.51c.507,1.243.942,2.468,1.3,3.658q.309,1.041.539,2.041c.155.679.281,1.343.377,1.987A13.612,13.612,0,0,1,126.37,102.966Z" transform="translate(-92.487 -67.961)" fill="#f2f2f2"/>
      <path id="Path_380" data-name="Path 380" d="M45.25,187.29q-1.02-.4-2.145-.746-.985-.3-2.04-.552a44.39,44.39,0,0,0-5.92-.975c-.911-.091-1.84-.158-2.781-.2-.831-.038-1.673-.058-2.522-.058s-1.691.02-2.523.058c-.942.042-1.872.11-2.782.2a44.377,44.377,0,0,0-5.919.975q-1.054.252-2.04.552-1.122.342-2.145.746c-4.442,1.754-6.89,4.209-6.89,6.912s2.448,5.159,6.89,6.913q1.02.4,2.144.745.985.3,2.04.551a44.376,44.376,0,0,0,5.921.976c.911.09,1.84.157,2.782.2.831.038,1.673.057,2.522.057s1.69-.019,2.521-.057q1.414-.065,2.782-.2a44.253,44.253,0,0,0,5.921-.976q1.054-.252,2.04-.552c.747-.228,1.464-.476,2.144-.745,4.443-1.755,6.89-4.21,6.89-6.913S49.693,189.044,45.25,187.29Zm3.443,9.4a13.607,13.607,0,0,1-4.219,2.456q-.91.359-1.91.667-.98.3-2.037.553c-1.209.288-2.487.524-3.818.707q-1.331.184-2.727.294c-1.348.108-2.733.162-4.14.162s-2.793-.054-4.14-.161c-.929-.073-1.841-.172-2.728-.294-1.331-.183-2.609-.419-3.818-.707q-1.055-.25-2.037-.553-1-.307-1.91-.667a13.608,13.608,0,0,1-4.219-2.456,3,3,0,0,1,0-4.985,13.608,13.608,0,0,1,4.219-2.456q.91-.359,1.91-.667.98-.3,2.037-.553c1.209-.288,2.487-.524,3.818-.707.887-.123,1.8-.221,2.728-.294,1.348-.107,2.733-.161,4.14-.161s2.793.054,4.14.162q1.394.108,2.727.294c1.331.183,2.609.419,3.818.707q1.055.25,2.037.553,1,.307,1.91.667a13.609,13.609,0,0,1,4.219,2.456,2.995,2.995,0,0,1,0,4.985Z" transform="translate(-7.544 -174.277)" fill="#f2f2f2"/>
      <path id="Path_381" data-name="Path 381" d="M125.934,68.576c-2.342-1.351-5.69-.46-9.431,2.51q-.858.682-1.717,1.485-.753.7-1.5,1.49a44.439,44.439,0,0,0-3.806,4.639q-.8,1.117-1.563,2.31-.674,1.051-1.31,2.154T105.4,85.377q-.651,1.256-1.218,2.509a44.417,44.417,0,0,0-2.116,5.615q-.309,1.04-.542,2.043-.264,1.142-.427,2.228a15.671,15.671,0,0,0,.023,5.533,22.865,22.865,0,0,0,8.013,3.8,17.156,17.156,0,0,0,3.937-2.424q.859-.682,1.718-1.485.753-.7,1.5-1.489a44.459,44.459,0,0,0,3.805-4.64q.8-1.117,1.564-2.311.674-1.051,1.31-2.154t1.211-2.211q.651-1.256,1.219-2.51a44.492,44.492,0,0,0,2.115-5.615q.308-1.038.541-2.042c.177-.761.32-1.506.428-2.229C129.178,73.274,128.276,69.928,125.934,68.576Zm-.463,13.142c-.355,1.19-.79,2.415-1.3,3.658q-.506,1.245-1.109,2.51c-.58,1.22-1.226,2.447-1.93,3.666s-1.443,2.39-2.208,3.5q-.793,1.153-1.619,2.217c-.823,1.061-1.667,2.049-2.522,2.952q-.744.788-1.5,1.487t-1.532,1.32a13.629,13.629,0,0,1-4.237,2.427,3,3,0,0,1-4.317-2.494,13.616,13.616,0,0,1-.017-4.882c.1-.644.222-1.308.377-1.987s.333-1.348.539-2.041c.355-1.19.79-2.416,1.3-3.659q.506-1.245,1.109-2.509c.58-1.22,1.226-2.447,1.93-3.666s1.443-2.391,2.209-3.5q.792-1.152,1.618-2.215c.824-1.062,1.668-2.05,2.522-2.953q.746-.789,1.5-1.487t1.532-1.32a13.626,13.626,0,0,1,4.237-2.426,5.042,5.042,0,0,1,1.465-.245,2.678,2.678,0,0,1,1.361.336,3.516,3.516,0,0,1,1.492,2.4,13.616,13.616,0,0,1,.017,4.882c-.1.644-.222,1.308-.378,1.987S125.677,81.024,125.471,81.718Z" transform="translate(-92.488 -67.961)" fill="#f2f2f2"/>
      <ellipse id="Ellipse_53" data-name="Ellipse 53" cx="4.191" cy="4.191" rx="4.191" ry="4.191" transform="translate(18.107 15.735)" fill="#f2f2f2"/>
    </g>
  </g>
</svg>
