<svg xmlns="http://www.w3.org/2000/svg" width="46.102" height="46.103" viewBox="0 0 46.102 46.103">
  <g id="XMLID_21_" transform="translate(0 0)">
    <path id="XMLID_4_" d="M.005,23.051A23.053,23.053,0,0,0,13,43.8L2,13.67A22.969,22.969,0,0,0,.005,23.051Zm38.612-1.163a12.138,12.138,0,0,0-1.9-6.357c-1.168-1.9-2.264-3.506-2.264-5.406a3.99,3.99,0,0,1,3.87-4.091c.1,0,.2.012.3.019A23.045,23.045,0,0,0,3.8,10.389c.542.018,1.052.029,1.484.029,2.41,0,6.144-.293,6.144-.293a.953.953,0,0,1,.147,1.9s-1.249.146-2.638.219l8.394,24.969,5.045-15.129-3.591-9.84c-1.242-.072-2.417-.219-2.417-.219a.953.953,0,0,1,.146-1.9s3.806.293,6.071.293c2.411,0,6.144-.293,6.144-.293a.953.953,0,0,1,.147,1.9s-1.251.146-2.637.219l8.33,24.779,2.3-7.681A21.47,21.47,0,0,0,38.617,21.888ZM23.461,25.067l-6.917,20.1A23.063,23.063,0,0,0,30.711,44.8a2.172,2.172,0,0,1-.165-.318ZM43.284,11.993a17.612,17.612,0,0,1,.156,2.37,21.764,21.764,0,0,1-1.754,8.256l-7.04,20.356a23.054,23.054,0,0,0,8.639-30.982Z" transform="translate(-0.005 0)" fill="#02182b"/>
  </g>
</svg>
