<svg xmlns="http://www.w3.org/2000/svg" xmlns:xlink="http://www.w3.org/1999/xlink" width="76" height="74" viewBox="0 0 76 74">
  <defs>
    <filter id="Rectangle_828" x="0" y="0" width="76" height="74" filterUnits="userSpaceOnUse">
      <feOffset dy="1" input="SourceAlpha"/>
      <feGaussianBlur stdDeviation="5" result="blur"/>
      <feFlood flood-opacity="0.161"/>
      <feComposite operator="in" in2="blur"/>
      <feComposite in="SourceGraphic"/>
    </filter>
  </defs>
  <g id="Group_204" data-name="Group 204" transform="translate(-762 -315)">
    <g transform="matrix(1, 0, 0, 1, 762, 315)" filter="url(#Rectangle_828)">
      <rect id="Rectangle_828-2" data-name="Rectangle 828" width="46" height="44" rx="4" transform="translate(15 14)" fill="#399af8"/>
    </g>
    <g id="phone-call" transform="translate(1149 748.634)">
      <path id="Path_376" data-name="Path 376" d="M10.238,66.131c2.257,2.257,4.775,3.413,5.612,2.576l1.057-1.057a2.062,2.062,0,0,1,2.916,0h0l2.333,2.333a2.887,2.887,0,0,1,0,4.082h0l-1.641,1.641c-2.033,2.033-8.125-.763-13.608-6.245a29.673,29.673,0,0,1-5.94-8.1c-1.13-2.463-1.322-4.494-.3-5.51L2.3,54.212a2.887,2.887,0,0,1,4.082,0h0L8.72,56.545a2.062,2.062,0,0,1,0,2.916h0L7.664,60.518c-.838.838.317,3.356,2.574,5.614Z" transform="translate(-360 -463)" fill="#fff"/>
    </g>
  </g>
</svg>
