<svg xmlns="http://www.w3.org/2000/svg" width="218.418" height="133.003" viewBox="0 0 218.418 133.003">
  <g id="Group_188" data-name="Group 188" transform="translate(-1050 -326)">
    <g id="Group_183" data-name="Group 183" transform="translate(265.403 -3)">
      <rect id="Rectangle_802" data-name="Rectangle 802" width="194.013" height="118.36" rx="6.96" transform="translate(797.291 329)" fill="#d8d8d8"/>
      <rect id="Rectangle_803" data-name="Rectangle 803" width="179.371" height="106.158" transform="translate(804.612 334.794)"/>
      <path id="Rectangle_774" data-name="Rectangle 774" d="M784.6,426h218.418a14.643,14.643,0,0,1-14.643,14.643H799.24A14.642,14.642,0,0,1,784.6,426Z" transform="translate(0 21.36)" fill="#c6c3c3"/>
      <path id="Rectangle_775" data-name="Rectangle 775" d="M858.6,426h37.826a4.881,4.881,0,0,1-4.881,4.881H863.478A4.881,4.881,0,0,1,858.6,426Z" transform="translate(16.296 21.36)" fill="#f2f2f2"/>
      <g id="Group_179" data-name="Group 179" transform="translate(779.597 62)">
        <rect id="Rectangle_755" data-name="Rectangle 755" width="35" height="3" rx="1.5" transform="translate(41 306)" fill="#ffad00"/>
        <rect id="Rectangle_756" data-name="Rectangle 756" width="11" height="3" rx="1.5" transform="translate(81 306)" fill="#ffad00"/>
        <rect id="Rectangle_757" data-name="Rectangle 757" width="11" height="3" rx="1.5" transform="translate(97 306)" fill="#8093b2"/>
        <rect id="Rectangle_758" data-name="Rectangle 758" width="11" height="3" rx="1.5" transform="translate(41 314)" fill="#8093b2"/>
        <rect id="Rectangle_759" data-name="Rectangle 759" width="21" height="3" rx="1.5" transform="translate(57 314)" fill="#ffad00"/>
        <rect id="Rectangle_760" data-name="Rectangle 760" width="24" height="3" rx="1.5" transform="translate(57 322)" fill="#ffad00"/>
        <rect id="Rectangle_761" data-name="Rectangle 761" width="20" height="3" rx="1.5" transform="translate(41 330)" fill="#ffad00"/>
        <rect id="Rectangle_762" data-name="Rectangle 762" width="13" height="3" rx="1.5" transform="translate(52 338)" fill="#8093b2"/>
        <rect id="Rectangle_763" data-name="Rectangle 763" width="18" height="3" rx="1.5" transform="translate(70 338)" fill="#ffad00"/>
        <rect id="Rectangle_764" data-name="Rectangle 764" width="14" height="3" rx="1.5" transform="translate(47 346)" fill="#ffad00"/>
        <rect id="Rectangle_765" data-name="Rectangle 765" width="14" height="3" rx="1.5" transform="translate(66 346)" fill="#ffad00"/>
        <rect id="Rectangle_766" data-name="Rectangle 766" width="32" height="3" rx="1.5" transform="translate(85 346)" fill="#ffad00"/>
        <rect id="Rectangle_767" data-name="Rectangle 767" width="14" height="3" rx="1.5" transform="translate(86 322)" fill="#ffad00"/>
        <path id="Rectangle_769" data-name="Rectangle 769" d="M2,0H20a2,2,0,0,1,2,2V5a0,0,0,0,1,0,0H0A0,0,0,0,1,0,5V2A2,2,0,0,1,2,0Z" transform="translate(35 290)" fill="#2b3648"/>
        <path id="Path_333" data-name="Path 333" d="M-20024.8-8364.5h11.68" transform="translate(20065 8657)" fill="#f7f7f7" stroke="#8093b2" stroke-linecap="round" stroke-width="1"/>
        <path id="Rectangle_770" data-name="Rectangle 770" d="M2,0H163a2,2,0,0,1,2,2V8a0,0,0,0,1,0,0H0A0,0,0,0,1,0,8V2A2,2,0,0,1,2,0Z" transform="translate(32 280)" fill="#d8d8d8"/>
        <circle id="Ellipse_45" data-name="Ellipse 45" cx="1.5" cy="1.5" r="1.5" transform="translate(37 283)" fill="#ef4922"/>
        <circle id="Ellipse_46" data-name="Ellipse 46" cx="1.5" cy="1.5" r="1.5" transform="translate(42 283)" fill="#ffad00"/>
        <circle id="Ellipse_47" data-name="Ellipse 47" cx="1.5" cy="1.5" r="1.5" transform="translate(47 283)" fill="#22ef32"/>
        <path id="Path_352" data-name="Path 352" d="M0,0H165V83.99H0Z" transform="translate(32 288.01)" fill="#2b3648"/>
      </g>
    </g>
    <rect id="Rectangle_778" data-name="Rectangle 778" width="56" height="39" rx="2" transform="translate(1166 372)" fill="#8093b2"/>
    <rect id="Rectangle_779" data-name="Rectangle 779" width="51" height="8" rx="2" transform="translate(1098 372)" fill="#8093b2"/>
    <rect id="Rectangle_780" data-name="Rectangle 780" width="36" height="8" rx="2" transform="translate(1098 384)" fill="#ffad00"/>
    <rect id="Rectangle_781" data-name="Rectangle 781" width="12" height="8" rx="2" transform="translate(1098 403)" fill="#ffad00"/>
    <rect id="Rectangle_782" data-name="Rectangle 782" width="44" height="6" rx="2" transform="translate(1178 357)" fill="#8093b2"/>
    <rect id="Rectangle_783" data-name="Rectangle 783" width="23" height="6" rx="2" transform="translate(1098 357)" fill="#ffad00"/>
  </g>
</svg>
